<svg width="18" height="18" viewBox="0 0 18 18" fill="none" xmlns="http://www.w3.org/2000/svg">
<path d="M14.8981 1.8712L14.9039 1.87754L14.9099 1.88369L16.1322 3.12813L16.1414 3.13749L16.151 3.14636C16.2711 3.25647 16.3553 3.38228 16.409 3.52823C16.4716 3.69842 16.5004 3.86184 16.5 4.02089V4.02222C16.5 4.20085 16.4697 4.36696 16.4104 4.52389C16.3568 4.66598 16.2689 4.80265 16.1365 4.93416L16.1353 4.93534L4.57067 16.5H1.5V13.4296L13.0785 1.873C13.2127 1.75145 13.3574 1.66 13.5136 1.59543C13.6672 1.53197 13.828 1.5 14 1.5C14.1728 1.5 14.3394 1.53207 14.5032 1.59757C14.6552 1.65837 14.7854 1.74829 14.8981 1.8712Z" stroke="#738CAA"/>
</svg>
