<svg width="16" height="16" viewBox="0 0 16 16" fill="none" xmlns="http://www.w3.org/2000/svg">
<path d="M2.6 6.93333V6.4H2.06667V6.93333H2.6ZM6.86667 6.93333V6.4H6.33333V6.93333H6.86667ZM6.86667 11.2H6.33333V11.7333H6.86667V11.2ZM14.3333 3.73333H14.8667V3.51253L14.7109 3.35573L14.3333 3.73333ZM11.1333 0.533333L11.5109 0.155733L11.3541 0H11.1333V0.533333ZM2.6 7.46667H3.66667V6.4H2.6V7.46667ZM3.13333 11.7333V9.06667H2.06667V11.7333H3.13333ZM3.13333 9.06667V6.93333H2.06667V9.06667H3.13333ZM3.66667 8.53333H2.6V9.6H3.66667V8.53333ZM4.2 8C4.2 8.14145 4.14381 8.2771 4.04379 8.37712C3.94377 8.47714 3.80812 8.53333 3.66667 8.53333V9.6C4.09101 9.6 4.49798 9.43143 4.79804 9.13137C5.0981 8.83131 5.26667 8.42435 5.26667 8H4.2ZM3.66667 7.46667C3.80812 7.46667 3.94377 7.52286 4.04379 7.62288C4.14381 7.7229 4.2 7.85855 4.2 8H5.26667C5.26667 7.57565 5.0981 7.16869 4.79804 6.86863C4.49798 6.56857 4.09101 6.4 3.66667 6.4V7.46667ZM6.33333 6.93333V11.2H7.4V6.93333H6.33333ZM6.86667 11.7333H7.93333V10.6667H6.86667V11.7333ZM9.53333 10.1333V8H8.46667V10.1333H9.53333ZM7.93333 6.4H6.86667V7.46667H7.93333V6.4ZM9.53333 8C9.53333 7.57565 9.36476 7.16869 9.0647 6.86863C8.76465 6.56857 8.35768 6.4 7.93333 6.4V7.46667C8.07478 7.46667 8.21044 7.52286 8.31046 7.62288C8.41048 7.7229 8.46667 7.85855 8.46667 8H9.53333ZM7.93333 11.7333C8.35768 11.7333 8.76465 11.5648 9.0647 11.2647C9.36476 10.9646 9.53333 10.5577 9.53333 10.1333H8.46667C8.46667 10.2748 8.41048 10.4104 8.31046 10.5105C8.21044 10.6105 8.07478 10.6667 7.93333 10.6667V11.7333ZM10.6 6.4V11.7333H11.6667V6.4H10.6ZM11.1333 7.46667H13.8V6.4H11.1333V7.46667ZM11.1333 9.6H12.7333V8.53333H11.1333V9.6ZM2.06667 5.33333V1.6H1V5.33333H2.06667ZM13.8 3.73333V5.33333H14.8667V3.73333H13.8ZM2.6 1.06667H11.1333V0H2.6V1.06667ZM10.7557 0.910933L13.9557 4.11093L14.7109 3.35573L11.5109 0.155733L10.7557 0.910933ZM2.06667 1.6C2.06667 1.45855 2.12286 1.3229 2.22288 1.22288C2.3229 1.12286 2.45855 1.06667 2.6 1.06667V0C2.17565 0 1.76869 0.168571 1.46863 0.468629C1.16857 0.768687 1 1.17565 1 1.6H2.06667ZM1 12.8V14.4H2.06667V12.8H1ZM2.6 16H13.2667V14.9333H2.6V16ZM14.8667 14.4V12.8H13.8V14.4H14.8667ZM13.2667 16C13.691 16 14.098 15.8314 14.398 15.5314C14.6981 15.2313 14.8667 14.8243 14.8667 14.4H13.8C13.8 14.5414 13.7438 14.6771 13.6438 14.7771C13.5438 14.8771 13.4081 14.9333 13.2667 14.9333V16ZM1 14.4C1 14.8243 1.16857 15.2313 1.46863 15.5314C1.76869 15.8314 2.17565 16 2.6 16V14.9333C2.45855 14.9333 2.3229 14.8771 2.22288 14.7771C2.12286 14.6771 2.06667 14.5414 2.06667 14.4H1Z" fill="black"/>
</svg>
