<svg width="18" height="18" viewBox="0 0 18 18" fill="none" xmlns="http://www.w3.org/2000/svg">
<path d="M15.6 3.4C15.8122 3.4 16.0157 3.48429 16.1657 3.63431C16.3157 3.78434 16.4 3.98783 16.4 4.2C16.4 4.41217 16.3157 4.61566 16.1657 4.76569C16.0157 4.91571 15.8122 5 15.6 5H14.8L14.7976 5.0568L14.0512 15.5136C14.0225 15.9173 13.8418 16.2951 13.5457 16.5709C13.2495 16.8467 12.8599 17 12.4552 17H5.944C5.53931 17 5.14965 16.8467 4.85351 16.5709C4.55736 16.2951 4.37673 15.9173 4.348 15.5136L3.6016 5.0576C3.60039 5.03842 3.59985 5.01921 3.6 5H2.8C2.58783 5 2.38434 4.91571 2.23431 4.76569C2.08429 4.61566 2 4.41217 2 4.2C2 3.98783 2.08429 3.78434 2.23431 3.63431C2.38434 3.48429 2.58783 3.4 2.8 3.4H15.6ZM13.1976 5H5.2024L5.9448 15.4H12.4552L13.1976 5ZM10.8 1C11.0122 1 11.2157 1.08429 11.3657 1.23431C11.5157 1.38434 11.6 1.58783 11.6 1.8C11.6 2.01217 11.5157 2.21566 11.3657 2.36569C11.2157 2.51571 11.0122 2.6 10.8 2.6H7.6C7.38783 2.6 7.18434 2.51571 7.03431 2.36569C6.88429 2.21566 6.8 2.01217 6.8 1.8C6.8 1.58783 6.88429 1.38434 7.03431 1.23431C7.18434 1.08429 7.38783 1 7.6 1H10.8Z" fill="#DC395F"/>
</svg>
