<svg width="42" height="42" viewBox="0 0 42 42" fill="none" xmlns="http://www.w3.org/2000/svg">
<rect width="42" height="42" rx="21" fill="#D95F74" fill-opacity="0.43"/>
<path d="M32.1512 11.5278C32.5097 11.5278 32.8535 11.6702 33.107 11.9237C33.3605 12.1772 33.5029 12.5211 33.5029 12.8796C33.5029 13.2381 33.3605 13.5819 33.107 13.8354C32.8535 14.0889 32.5097 14.2313 32.1512 14.2313H30.7995L30.7954 14.3273L29.5342 31.9956C29.4857 32.6777 29.1805 33.316 28.6801 33.782C28.1797 34.2481 27.5213 34.5072 26.8376 34.5071H15.8359C15.1521 34.5072 14.4937 34.2481 13.9933 33.782C13.4929 33.316 13.1877 32.6777 13.1392 31.9956L11.878 14.3286C11.876 14.2962 11.8751 14.2637 11.8753 14.2313H10.5236C10.1651 14.2313 9.82128 14.0889 9.56779 13.8354C9.31429 13.5819 9.17188 13.2381 9.17188 12.8796C9.17188 12.5211 9.31429 12.1772 9.56779 11.9237C9.82128 11.6702 10.1651 11.5278 10.5236 11.5278H32.1512ZM28.092 14.2313H14.5828L15.8372 31.8037H26.8376L28.092 14.2313ZM24.0408 7.47266C24.3993 7.47266 24.7432 7.61507 24.9967 7.86857C25.2502 8.12206 25.3926 8.46588 25.3926 8.82438C25.3926 9.18288 25.2502 9.5267 24.9967 9.78019C24.7432 10.0337 24.3993 10.1761 24.0408 10.1761H18.6339C18.2754 10.1761 17.9316 10.0337 17.6781 9.78019C17.4246 9.5267 17.2822 9.18288 17.2822 8.82438C17.2822 8.46588 17.4246 8.12206 17.6781 7.86857C17.9316 7.61507 18.2754 7.47266 18.6339 7.47266H24.0408Z" fill="#DC395F"/>
</svg>
