<svg width="25" height="24" viewBox="0 0 25 24" fill="none" xmlns="http://www.w3.org/2000/svg">
<g clip-path="url(#clip0_550_2267)">
<path d="M12.5 1.5C10.4233 1.5 8.39323 2.11581 6.66652 3.26957C4.9398 4.42332 3.59399 6.0632 2.79927 7.98182C2.00455 9.90045 1.79661 12.0116 2.20176 14.0484C2.6069 16.0852 3.60693 17.9562 5.07538 19.4246C6.54383 20.8931 8.41476 21.8931 10.4516 22.2982C12.4884 22.7034 14.5996 22.4955 16.5182 21.7007C18.4368 20.906 20.0767 19.5602 21.2304 17.8335C22.3842 16.1068 23 14.0767 23 12C22.9969 9.21619 21.8896 6.5473 19.9212 4.57884C17.9527 2.61039 15.2838 1.50314 12.5 1.5ZM3.515 12.2955L4.5188 12.6299L5.75 14.477V15.4394C5.75001 15.6383 5.82903 15.829 5.96968 15.9697L8 18V19.7824C6.67849 19.0176 5.57337 17.9291 4.78873 16.6193C4.00409 15.3095 3.56576 13.8215 3.515 12.2955ZM12.5 21C11.8512 20.9987 11.2045 20.9271 10.5712 20.7865L11 19.5L12.3535 16.1163C12.3986 16.0033 12.4157 15.8811 12.4031 15.7601C12.3905 15.6391 12.3486 15.523 12.2812 15.4217L11.2227 13.834C11.1542 13.7312 11.0614 13.647 10.9525 13.5887C10.8437 13.5305 10.7221 13.5 10.5986 13.5H6.9011L5.96495 12.0955L7.56058 10.5H8.75V12H10.25V9.9492L13.1512 4.87208L11.8489 4.12792L11.2077 5.25H9.15141L8.3369 4.02833C9.43035 3.45125 10.6321 3.10845 11.8654 3.02179C13.0987 2.93512 14.3366 3.10651 15.5 3.525V6C15.5 6.19891 15.579 6.38968 15.7197 6.53033C15.8603 6.67098 16.0511 6.75 16.25 6.75H17.3486C17.4721 6.75001 17.5936 6.71953 17.7025 6.66126C17.8114 6.603 17.9042 6.51876 17.9727 6.41603L18.6304 5.42947C19.4871 6.22831 20.1802 7.18631 20.6709 8.25H17.615C17.4416 8.25 17.2736 8.31007 17.1395 8.41999C17.0054 8.52992 16.9136 8.68291 16.8796 8.85292L16.338 12.206C16.3125 12.3637 16.3381 12.5255 16.4109 12.6676C16.4837 12.8098 16.6001 12.925 16.743 12.9965L19.25 14.25L19.7638 17.2918C18.9314 18.439 17.8394 19.3731 16.5769 20.0176C15.3145 20.6621 13.9174 20.9987 12.5 21Z" fill="white"/>
</g>
<defs>
<clipPath id="clip0_550_2267">
<rect width="24" height="24" fill="white" transform="translate(0.5)"/>
</clipPath>
</defs>
</svg>
