<svg width="23" height="24" viewBox="0 0 23 24" fill="none" xmlns="http://www.w3.org/2000/svg">
<path fill-rule="evenodd" clip-rule="evenodd" d="M20.2079 13.7L21.4079 14.4C22.3079 15 22.6079 16.2 22.1079 17.3L21.1079 19C20.6079 19.9 19.4079 20.3 18.4079 19.7L17.2079 19C15.9079 18.2 14.2079 19.2 14.2079 20.7V22C14.2079 23.1 13.3079 24 12.2079 24H10.2079C9.1079 24 8.2079 23.1 8.2079 22V20.6C8.2079 19.1 6.5079 18.1 5.2079 18.9L4.0079 19.5C3.1079 20.1 1.9079 19.8 1.3079 18.8L0.3079 17.1C-0.2921 16.2 0.0079002 15 1.0079 14.4L2.2079 13.7C3.5079 13 3.5079 11 2.2079 10.3L1.0079 9.6C0.1079 9 -0.1921 7.8 0.3079 6.8L1.3079 5.1C1.8079 4.2 3.0079 3.8 4.0079 4.4L5.2079 5C6.5079 5.8 8.2079 4.8 8.2079 3.3V2C8.2079 0.9 9.1079 0 10.2079 0H12.2079C13.3079 0 14.2079 0.9 14.2079 2V3.4C14.2079 4.9 15.9079 5.9 17.2079 5.1L18.4079 4.4C19.3079 3.8 20.5079 4.1 21.1079 5.1L22.1079 6.8C22.7079 7.7 22.4079 8.9 21.4079 9.5L20.2079 10.2C18.9079 11 18.9079 12.9 20.2079 13.7ZM7.2079 12C7.2079 14.2 9.0079 16 11.2079 16C13.4079 16 15.2079 14.2 15.2079 12C15.2079 9.8 13.4079 8 11.2079 8C9.0079 8 7.2079 9.8 7.2079 12ZM18.9625 12.0089C17.075 9.67857 14.4667 7 11 7C9.6 7 8.31667 7.42411 6.9625 8.33036C6.19091 8.84931 5.63443 9.51101 4.85823 10.434C4.48595 10.8766 4.06312 11.3794 3.54178 11.9554L3.50011 12L3.27917 12.308C5.575 14.8259 7.55833 17 11 17C12.5208 17 13.9958 16.4688 15.5083 15.375C16.7958 14.442 17.8917 13.2589 18.7708 12.3036L19 12.058L18.9625 12.0089ZM11 15.5714C9.1625 15.5714 7.66667 13.9688 7.66667 12C7.66667 10.0312 9.1625 8.42857 11 8.42857C12.8375 8.42857 14.3333 10.0312 14.3333 12C14.3333 13.9688 12.8375 15.5714 11 15.5714ZM10.9177 10.8813C10.9177 10.5578 11.0114 10.2531 11.1755 10C9.9333 10 8.93018 11.0125 8.93018 12.2594C8.93018 13.5063 9.93799 14.5141 11.1755 14.5141C12.413 14.5141 13.4255 13.5063 13.4255 12.2594C13.1724 12.4234 12.8677 12.5172 12.5442 12.5172C11.6489 12.5125 10.9177 11.7812 10.9177 10.8813Z" fill="black"/>
</svg>
