<svg width="24" height="24" viewBox="0 0 24 24" fill="none" xmlns="http://www.w3.org/2000/svg">
<path d="M19.4948 15.7265C18.8104 15.0234 16.8651 13.7062 15.5901 13.7062C15.2948 13.7062 15.037 13.7718 14.8261 13.9078C14.2026 14.3062 13.7058 14.6156 13.4667 14.6156C13.3354 14.6156 13.1948 14.4984 12.8854 14.2312L12.8339 14.1843C11.9761 13.439 11.7933 13.2468 11.4604 12.9L11.3761 12.8109C11.3151 12.75 11.2636 12.6937 11.212 12.6421C10.9214 12.3421 10.7104 12.1265 9.96513 11.2828L9.93232 11.2453C9.57607 10.8421 9.34169 10.5796 9.32763 10.3875C9.31357 10.2 9.47763 9.89526 9.89482 9.32808C10.4011 8.6437 10.4198 7.79995 9.95575 6.82026C9.58544 6.04683 8.98075 5.3062 8.44638 4.65464L8.3995 4.59839C7.94013 4.03589 7.40575 3.75464 6.81044 3.75464C6.1495 3.75464 5.60107 4.11089 5.31044 4.29839C5.287 4.31245 5.26357 4.3312 5.24013 4.34526C4.58857 4.75776 4.11513 5.32495 3.937 5.90151C3.66982 6.7687 3.49169 7.8937 4.77138 10.2328C5.87763 12.2578 6.88075 13.6171 8.4745 15.2531C9.9745 16.7906 10.6401 17.2875 12.1308 18.3656C13.7901 19.5656 15.3839 20.2546 16.4995 20.2546C17.5354 20.2546 18.3511 20.2546 19.5136 18.8531C20.7323 17.3812 20.2261 16.4812 19.4948 15.7265Z" fill="white"/>
</svg>
