<svg width="370" height="346" viewBox="0 0 370 346" fill="none" xmlns="http://www.w3.org/2000/svg">
<path d="M185.001 66.3538C185.001 63.2758 187.498 60.7655 190.572 60.924C205.252 61.6807 219.646 65.4219 232.865 71.9409C247.753 79.2827 260.752 89.9509 270.857 103.12C280.962 116.289 287.902 131.607 291.141 147.887C294.379 164.168 293.829 180.975 289.533 197.009C285.236 213.043 277.309 227.874 266.364 240.354C255.42 252.834 241.751 262.629 226.415 268.982C211.079 275.334 194.487 278.073 177.923 276.988C163.215 276.024 148.88 272.067 135.787 265.382C133.046 263.982 132.139 260.56 133.678 257.894C135.217 255.229 138.619 254.331 141.368 255.714C152.973 261.554 165.651 265.013 178.652 265.865C193.51 266.839 208.393 264.382 222.149 258.684C235.905 252.986 248.166 244.199 257.984 233.005C267.802 221.81 274.912 208.507 278.766 194.124C282.62 179.742 283.113 164.666 280.208 150.062C277.304 135.458 271.078 121.719 262.014 109.906C252.95 98.0929 241.289 88.5236 227.935 81.938C216.249 76.1753 203.541 72.8325 190.571 72.0871C187.498 71.9104 185.001 69.4319 185.001 66.3538Z" fill="#F59E0B"/>
<path d="M184.999 88.7496C184.999 85.6685 187.5 83.1518 190.574 83.3519C206.726 84.4031 222.293 90.0046 235.448 99.5626C250.112 110.216 261.027 125.239 266.628 142.477C272.229 159.716 272.229 178.284 266.628 195.523C261.027 212.761 250.112 227.783 235.448 238.437C220.785 249.091 203.125 254.829 184.999 254.829C166.874 254.829 149.214 249.091 134.55 238.437C119.886 227.783 108.972 212.761 103.371 195.523C98.3457 180.057 97.8289 163.521 101.82 147.836C102.58 144.85 105.746 143.249 108.677 144.201C111.607 145.153 113.189 148.297 112.458 151.291C109.178 164.727 109.686 178.851 113.982 192.075C118.855 207.072 128.351 220.142 141.108 229.41C153.866 238.679 169.23 243.671 184.999 243.671C200.768 243.671 216.133 238.679 228.89 229.41C241.647 220.142 251.143 207.072 256.016 192.075C260.889 177.077 260.889 160.923 256.016 145.925C251.143 130.928 241.647 117.858 228.89 108.59C217.641 100.417 204.366 95.5691 190.573 94.5368C187.501 94.3068 184.999 91.8308 184.999 88.7496Z" fill="#FACC15"/>
<path d="M57.1367 88.7823H54.8574V87.8624H57.1367C57.5781 87.8624 57.9355 87.7921 58.209 87.6514C58.4824 87.5108 58.6816 87.3155 58.8066 87.0655C58.9355 86.8155 59 86.5303 59 86.21C59 85.9171 58.9355 85.6417 58.8066 85.3839C58.6816 85.126 58.4824 84.919 58.209 84.7628C57.9355 84.6026 57.5781 84.5225 57.1367 84.5225H55.1211V92.128H53.9902V83.5967H57.1367C57.7812 83.5967 58.3262 83.7081 58.7715 83.9307C59.2168 84.1534 59.5547 84.462 59.7852 84.8565C60.0156 85.2471 60.1309 85.6944 60.1309 86.1983C60.1309 86.7452 60.0156 87.212 59.7852 87.5987C59.5547 87.9854 59.2168 88.2803 58.7715 88.4835C58.3262 88.6827 57.7812 88.7823 57.1367 88.7823ZM62.4805 86.7842V92.128H61.3965V85.7881H62.4512L62.4805 86.7842ZM64.4609 85.753L64.4551 86.7608C64.3652 86.7413 64.2793 86.7296 64.1973 86.7256C64.1191 86.7178 64.0293 86.7139 63.9277 86.7139C63.6777 86.7139 63.457 86.753 63.2656 86.8311C63.0742 86.9092 62.9121 87.0186 62.7793 87.1592C62.6465 87.2999 62.541 87.4678 62.4629 87.6631C62.3887 87.8546 62.3398 88.0655 62.3164 88.296L62.0117 88.4717C62.0117 88.0889 62.0488 87.7296 62.123 87.3936C62.2012 87.0577 62.3203 86.7608 62.4805 86.503C62.6406 86.2413 62.8438 86.0381 63.0898 85.8936C63.3398 85.7452 63.6367 85.671 63.9805 85.671C64.0586 85.671 64.1484 85.6807 64.25 85.7003C64.3516 85.7159 64.4219 85.7335 64.4609 85.753ZM65.0586 89.0284V88.8936C65.0586 88.4366 65.125 88.0128 65.2578 87.6221C65.3906 87.2276 65.582 86.8858 65.832 86.5967C66.082 86.3038 66.3848 86.0772 66.7402 85.9171C67.0957 85.753 67.4941 85.671 67.9355 85.671C68.3809 85.671 68.7812 85.753 69.1367 85.9171C69.4961 86.0772 69.8008 86.3038 70.0508 86.5967C70.3047 86.8858 70.498 87.2276 70.6309 87.6221C70.7637 88.0128 70.8301 88.4366 70.8301 88.8936V89.0284C70.8301 89.4854 70.7637 89.9092 70.6309 90.2999C70.498 90.6905 70.3047 91.0323 70.0508 91.3253C69.8008 91.6143 69.498 91.8409 69.1426 92.0049C68.791 92.1651 68.3926 92.2452 67.9473 92.2452C67.502 92.2452 67.1016 92.1651 66.7461 92.0049C66.3906 91.8409 66.0859 91.6143 65.832 91.3253C65.582 91.0323 65.3906 90.6905 65.2578 90.2999C65.125 89.9092 65.0586 89.4854 65.0586 89.0284ZM66.1426 88.8936V89.0284C66.1426 89.3448 66.1797 89.6436 66.2539 89.9249C66.3281 90.2022 66.4395 90.4483 66.5879 90.6631C66.7402 90.878 66.9297 91.0479 67.1562 91.1729C67.3828 91.294 67.6465 91.3546 67.9473 91.3546C68.2441 91.3546 68.5039 91.294 68.7266 91.1729C68.9531 91.0479 69.1406 90.878 69.2891 90.6631C69.4375 90.4483 69.5488 90.2022 69.623 89.9249C69.7012 89.6436 69.7402 89.3448 69.7402 89.0284V88.8936C69.7402 88.5811 69.7012 88.2862 69.623 88.0089C69.5488 87.7276 69.4355 87.4796 69.2832 87.2647C69.1348 87.046 68.9473 86.8741 68.7207 86.7491C68.498 86.6241 68.2363 86.5616 67.9355 86.5616C67.6387 86.5616 67.377 86.6241 67.1504 86.7491C66.9277 86.8741 66.7402 87.046 66.5879 87.2647C66.4395 87.4796 66.3281 87.7276 66.2539 88.0089C66.1797 88.2862 66.1426 88.5811 66.1426 88.8936ZM74.8438 85.7881V86.6202H71.416V85.7881H74.8438ZM72.5762 84.2471H73.6602V90.5577C73.6602 90.7725 73.6934 90.9346 73.7598 91.044C73.8262 91.1534 73.9121 91.2256 74.0176 91.2608C74.123 91.296 74.2363 91.3135 74.3574 91.3135C74.4473 91.3135 74.541 91.3057 74.6387 91.2901C74.7402 91.2706 74.8164 91.2549 74.8672 91.2432L74.873 92.128C74.7871 92.1553 74.6738 92.1807 74.5332 92.2042C74.3965 92.2315 74.2305 92.2452 74.0352 92.2452C73.7695 92.2452 73.5254 92.1924 73.3027 92.087C73.0801 91.9815 72.9023 91.8057 72.7695 91.5596C72.6406 91.3096 72.5762 90.9737 72.5762 90.5518V84.2471ZM78.7461 92.2452C78.3047 92.2452 77.9043 92.171 77.5449 92.0225C77.1895 91.8702 76.8828 91.6573 76.625 91.3839C76.3711 91.1104 76.1758 90.7862 76.0391 90.4112C75.9023 90.0362 75.834 89.626 75.834 89.1807V88.9346C75.834 88.419 75.9102 87.96 76.0625 87.5577C76.2148 87.1514 76.4219 86.8077 76.6836 86.5264C76.9453 86.2452 77.2422 86.0323 77.5742 85.8878C77.9062 85.7432 78.25 85.671 78.6055 85.671C79.0586 85.671 79.4492 85.7491 79.7773 85.9053C80.1094 86.0616 80.3809 86.2803 80.5918 86.5616C80.8027 86.8389 80.959 87.1671 81.0605 87.546C81.1621 87.921 81.2129 88.3311 81.2129 88.7764V89.2628H76.4785V88.378H80.1289V88.296C80.1133 88.0147 80.0547 87.7413 79.9531 87.4756C79.8555 87.21 79.6992 86.9913 79.4844 86.8194C79.2695 86.6475 78.9766 86.5616 78.6055 86.5616C78.3594 86.5616 78.1328 86.6143 77.9258 86.7198C77.7188 86.8214 77.541 86.9737 77.3926 87.1768C77.2441 87.3799 77.1289 87.628 77.0469 87.921C76.9648 88.2139 76.9238 88.5518 76.9238 88.9346V89.1807C76.9238 89.4815 76.9648 89.7647 77.0469 90.0303C77.1328 90.2921 77.2559 90.5225 77.416 90.7217C77.5801 90.921 77.7773 91.0772 78.0078 91.1905C78.2422 91.3038 78.5078 91.3604 78.8047 91.3604C79.1875 91.3604 79.5117 91.2823 79.7773 91.126C80.043 90.9698 80.2754 90.7608 80.4746 90.4991L81.1309 91.0206C80.9941 91.2276 80.8203 91.4249 80.6094 91.6124C80.3984 91.7999 80.1387 91.9522 79.8301 92.0694C79.5254 92.1866 79.1641 92.2452 78.7461 92.2452ZM85.0156 91.3546C85.2734 91.3546 85.5117 91.3018 85.7305 91.1964C85.9492 91.0909 86.1289 90.9464 86.2695 90.7628C86.4102 90.5753 86.4902 90.3624 86.5098 90.1241H87.541C87.5215 90.4991 87.3945 90.8487 87.1602 91.1729C86.9297 91.4932 86.627 91.753 86.252 91.9522C85.877 92.1475 85.4648 92.2452 85.0156 92.2452C84.5391 92.2452 84.123 92.1612 83.7676 91.9932C83.416 91.8253 83.123 91.5948 82.8887 91.3018C82.6582 91.0089 82.4844 90.6729 82.3672 90.294C82.2539 89.9112 82.1973 89.5069 82.1973 89.0811V88.835C82.1973 88.4092 82.2539 88.0069 82.3672 87.628C82.4844 87.2452 82.6582 86.9073 82.8887 86.6143C83.123 86.3214 83.416 86.0909 83.7676 85.9229C84.123 85.7549 84.5391 85.671 85.0156 85.671C85.5117 85.671 85.9453 85.7725 86.3164 85.9756C86.6875 86.1749 86.9785 86.4483 87.1895 86.796C87.4043 87.1397 87.5215 87.5303 87.541 87.9678H86.5098C86.4902 87.7061 86.416 87.4698 86.2871 87.2589C86.1621 87.0479 85.9902 86.8799 85.7715 86.7549C85.5566 86.626 85.3047 86.5616 85.0156 86.5616C84.6836 86.5616 84.4043 86.628 84.1777 86.7608C83.9551 86.8897 83.7773 87.0655 83.6445 87.2881C83.5156 87.5069 83.4219 87.751 83.3633 88.0206C83.3086 88.2862 83.2812 88.5577 83.2812 88.835V89.0811C83.2812 89.3585 83.3086 89.6319 83.3633 89.9014C83.418 90.171 83.5098 90.4151 83.6387 90.6339C83.7715 90.8526 83.9492 91.0284 84.1719 91.1612C84.3984 91.2901 84.6797 91.3546 85.0156 91.3546ZM91.4141 85.7881V86.6202H87.9863V85.7881H91.4141ZM89.1465 84.2471H90.2305V90.5577C90.2305 90.7725 90.2637 90.9346 90.3301 91.044C90.3965 91.1534 90.4824 91.2256 90.5879 91.2608C90.6934 91.296 90.8066 91.3135 90.9277 91.3135C91.0176 91.3135 91.1113 91.3057 91.209 91.2901C91.3105 91.2706 91.3867 91.2549 91.4375 91.2432L91.4434 92.128C91.3574 92.1553 91.2441 92.1807 91.1035 92.2042C90.9668 92.2315 90.8008 92.2452 90.6055 92.2452C90.3398 92.2452 90.0957 92.1924 89.873 92.087C89.6504 91.9815 89.4727 91.8057 89.3398 91.5596C89.2109 91.3096 89.1465 90.9737 89.1465 90.5518V84.2471ZM93.8633 85.7881V92.128H92.7734V85.7881H93.8633ZM92.6914 84.1065C92.6914 83.9307 92.7441 83.7823 92.8496 83.6612C92.959 83.5401 93.1191 83.4796 93.3301 83.4796C93.5371 83.4796 93.6953 83.5401 93.8047 83.6612C93.918 83.7823 93.9746 83.9307 93.9746 84.1065C93.9746 84.2745 93.918 84.419 93.8047 84.5401C93.6953 84.6573 93.5371 84.7159 93.3301 84.7159C93.1191 84.7159 92.959 84.6573 92.8496 84.5401C92.7441 84.419 92.6914 84.2745 92.6914 84.1065ZM95.3164 89.0284V88.8936C95.3164 88.4366 95.3828 88.0128 95.5156 87.6221C95.6484 87.2276 95.8398 86.8858 96.0898 86.5967C96.3398 86.3038 96.6426 86.0772 96.998 85.9171C97.3535 85.753 97.752 85.671 98.1934 85.671C98.6387 85.671 99.0391 85.753 99.3945 85.9171C99.7539 86.0772 100.059 86.3038 100.309 86.5967C100.562 86.8858 100.756 87.2276 100.889 87.6221C101.021 88.0128 101.088 88.4366 101.088 88.8936V89.0284C101.088 89.4854 101.021 89.9092 100.889 90.2999C100.756 90.6905 100.562 91.0323 100.309 91.3253C100.059 91.6143 99.7559 91.8409 99.4004 92.0049C99.0488 92.1651 98.6504 92.2452 98.2051 92.2452C97.7598 92.2452 97.3594 92.1651 97.0039 92.0049C96.6484 91.8409 96.3438 91.6143 96.0898 91.3253C95.8398 91.0323 95.6484 90.6905 95.5156 90.2999C95.3828 89.9092 95.3164 89.4854 95.3164 89.0284ZM96.4004 88.8936V89.0284C96.4004 89.3448 96.4375 89.6436 96.5117 89.9249C96.5859 90.2022 96.6973 90.4483 96.8457 90.6631C96.998 90.878 97.1875 91.0479 97.4141 91.1729C97.6406 91.294 97.9043 91.3546 98.2051 91.3546C98.502 91.3546 98.7617 91.294 98.9844 91.1729C99.2109 91.0479 99.3984 90.878 99.5469 90.6631C99.6953 90.4483 99.8066 90.2022 99.8809 89.9249C99.959 89.6436 99.998 89.3448 99.998 89.0284V88.8936C99.998 88.5811 99.959 88.2862 99.8809 88.0089C99.8066 87.7276 99.6934 87.4796 99.541 87.2647C99.3926 87.046 99.2051 86.8741 98.9785 86.7491C98.7559 86.6241 98.4941 86.5616 98.1934 86.5616C97.8965 86.5616 97.6348 86.6241 97.4082 86.7491C97.1855 86.8741 96.998 87.046 96.8457 87.2647C96.6973 87.4796 96.5859 87.7276 96.5117 88.0089C96.4375 88.2862 96.4004 88.5811 96.4004 88.8936ZM103.531 87.1417V92.128H102.447V85.7881H103.473L103.531 87.1417ZM103.273 88.7178L102.822 88.7003C102.826 88.2667 102.891 87.8663 103.016 87.4991C103.141 87.128 103.316 86.8057 103.543 86.5323C103.77 86.2589 104.039 86.0479 104.352 85.8995C104.668 85.7471 105.018 85.671 105.4 85.671C105.713 85.671 105.994 85.7139 106.244 85.7999C106.494 85.8819 106.707 86.0147 106.883 86.1983C107.062 86.3819 107.199 86.6202 107.293 86.9131C107.387 87.2022 107.434 87.5557 107.434 87.9737V92.128H106.344V87.962C106.344 87.6299 106.295 87.3643 106.197 87.1651C106.1 86.962 105.957 86.8155 105.77 86.7256C105.582 86.6319 105.352 86.585 105.078 86.585C104.809 86.585 104.562 86.6417 104.34 86.7549C104.121 86.8682 103.932 87.0245 103.771 87.2237C103.615 87.4229 103.492 87.6514 103.402 87.9092C103.316 88.1631 103.273 88.4327 103.273 88.7178ZM113.141 86.7842V92.128H112.057V85.7881H113.111L113.141 86.7842ZM115.121 85.753L115.115 86.7608C115.025 86.7413 114.939 86.7296 114.857 86.7256C114.779 86.7178 114.689 86.7139 114.588 86.7139C114.338 86.7139 114.117 86.753 113.926 86.8311C113.734 86.9092 113.572 87.0186 113.439 87.1592C113.307 87.2999 113.201 87.4678 113.123 87.6631C113.049 87.8546 113 88.0655 112.977 88.296L112.672 88.4717C112.672 88.0889 112.709 87.7296 112.783 87.3936C112.861 87.0577 112.98 86.7608 113.141 86.503C113.301 86.2413 113.504 86.0381 113.75 85.8936C114 85.7452 114.297 85.671 114.641 85.671C114.719 85.671 114.809 85.6807 114.91 85.7003C115.012 85.7159 115.082 85.7335 115.121 85.753ZM118.637 92.2452C118.195 92.2452 117.795 92.171 117.436 92.0225C117.08 91.8702 116.773 91.6573 116.516 91.3839C116.262 91.1104 116.066 90.7862 115.93 90.4112C115.793 90.0362 115.725 89.626 115.725 89.1807V88.9346C115.725 88.419 115.801 87.96 115.953 87.5577C116.105 87.1514 116.312 86.8077 116.574 86.5264C116.836 86.2452 117.133 86.0323 117.465 85.8878C117.797 85.7432 118.141 85.671 118.496 85.671C118.949 85.671 119.34 85.7491 119.668 85.9053C120 86.0616 120.271 86.2803 120.482 86.5616C120.693 86.8389 120.85 87.1671 120.951 87.546C121.053 87.921 121.104 88.3311 121.104 88.7764V89.2628H116.369V88.378H120.02V88.296C120.004 88.0147 119.945 87.7413 119.844 87.4756C119.746 87.21 119.59 86.9913 119.375 86.8194C119.16 86.6475 118.867 86.5616 118.496 86.5616C118.25 86.5616 118.023 86.6143 117.816 86.7198C117.609 86.8214 117.432 86.9737 117.283 87.1768C117.135 87.3799 117.02 87.628 116.938 87.921C116.855 88.2139 116.814 88.5518 116.814 88.9346V89.1807C116.814 89.4815 116.855 89.7647 116.938 90.0303C117.023 90.2921 117.146 90.5225 117.307 90.7217C117.471 90.921 117.668 91.0772 117.898 91.1905C118.133 91.3038 118.398 91.3604 118.695 91.3604C119.078 91.3604 119.402 91.2823 119.668 91.126C119.934 90.9698 120.166 90.7608 120.365 90.4991L121.021 91.0206C120.885 91.2276 120.711 91.4249 120.5 91.6124C120.289 91.7999 120.029 91.9522 119.721 92.0694C119.416 92.1866 119.055 92.2452 118.637 92.2452ZM123.447 87.0479V92.128H122.357V85.7881H123.389L123.447 87.0479ZM123.225 88.7178L122.721 88.7003C122.725 88.2667 122.781 87.8663 122.891 87.4991C123 87.128 123.162 86.8057 123.377 86.5323C123.592 86.2589 123.859 86.0479 124.18 85.8995C124.5 85.7471 124.871 85.671 125.293 85.671C125.59 85.671 125.863 85.7139 126.113 85.7999C126.363 85.8819 126.58 86.0128 126.764 86.1924C126.947 86.3721 127.09 86.6026 127.191 86.8839C127.293 87.1651 127.344 87.5049 127.344 87.9034V92.128H126.26V87.9561C126.26 87.6241 126.203 87.3585 126.09 87.1592C125.98 86.96 125.824 86.8155 125.621 86.7256C125.418 86.6319 125.18 86.585 124.906 86.585C124.586 86.585 124.318 86.6417 124.104 86.7549C123.889 86.8682 123.717 87.0245 123.588 87.2237C123.459 87.4229 123.365 87.6514 123.307 87.9092C123.252 88.1631 123.225 88.4327 123.225 88.7178ZM127.332 88.1202L126.605 88.3428C126.609 87.9952 126.666 87.6612 126.775 87.3409C126.889 87.0206 127.051 86.7354 127.262 86.4854C127.477 86.2354 127.74 86.0381 128.053 85.8936C128.365 85.7452 128.723 85.671 129.125 85.671C129.465 85.671 129.766 85.7159 130.027 85.8057C130.293 85.8956 130.516 86.0342 130.695 86.2217C130.879 86.4053 131.018 86.6417 131.111 86.9307C131.205 87.2198 131.252 87.5635 131.252 87.962V92.128H130.162V87.9503C130.162 87.5948 130.105 87.3194 129.992 87.1241C129.883 86.9249 129.727 86.7862 129.523 86.7081C129.324 86.626 129.086 86.585 128.809 86.585C128.57 86.585 128.359 86.626 128.176 86.7081C127.992 86.7901 127.838 86.9034 127.713 87.0479C127.588 87.1885 127.492 87.3506 127.426 87.5342C127.363 87.7178 127.332 87.9131 127.332 88.1202ZM132.605 89.0284V88.8936C132.605 88.4366 132.672 88.0128 132.805 87.6221C132.938 87.2276 133.129 86.8858 133.379 86.5967C133.629 86.3038 133.932 86.0772 134.287 85.9171C134.643 85.753 135.041 85.671 135.482 85.671C135.928 85.671 136.328 85.753 136.684 85.9171C137.043 86.0772 137.348 86.3038 137.598 86.5967C137.852 86.8858 138.045 87.2276 138.178 87.6221C138.311 88.0128 138.377 88.4366 138.377 88.8936V89.0284C138.377 89.4854 138.311 89.9092 138.178 90.2999C138.045 90.6905 137.852 91.0323 137.598 91.3253C137.348 91.6143 137.045 91.8409 136.689 92.0049C136.338 92.1651 135.939 92.2452 135.494 92.2452C135.049 92.2452 134.648 92.1651 134.293 92.0049C133.938 91.8409 133.633 91.6143 133.379 91.3253C133.129 91.0323 132.938 90.6905 132.805 90.2999C132.672 89.9092 132.605 89.4854 132.605 89.0284ZM133.689 88.8936V89.0284C133.689 89.3448 133.727 89.6436 133.801 89.9249C133.875 90.2022 133.986 90.4483 134.135 90.6631C134.287 90.878 134.477 91.0479 134.703 91.1729C134.93 91.294 135.193 91.3546 135.494 91.3546C135.791 91.3546 136.051 91.294 136.273 91.1729C136.5 91.0479 136.688 90.878 136.836 90.6631C136.984 90.4483 137.096 90.2022 137.17 89.9249C137.248 89.6436 137.287 89.3448 137.287 89.0284V88.8936C137.287 88.5811 137.248 88.2862 137.17 88.0089C137.096 87.7276 136.982 87.4796 136.83 87.2647C136.682 87.046 136.494 86.8741 136.268 86.7491C136.045 86.6241 135.783 86.5616 135.482 86.5616C135.186 86.5616 134.924 86.6241 134.697 86.7491C134.475 86.8741 134.287 87.046 134.135 87.2647C133.986 87.4796 133.875 87.7276 133.801 88.0089C133.727 88.2862 133.689 88.5811 133.689 88.8936ZM141.57 91.1495L143.305 85.7881H144.412L142.133 92.128H141.406L141.57 91.1495ZM140.123 85.7881L141.91 91.1788L142.033 92.128H141.307L139.01 85.7881H140.123ZM149.1 91.044V87.7803C149.1 87.5303 149.049 87.3135 148.947 87.1299C148.85 86.9424 148.701 86.7979 148.502 86.6964C148.303 86.5948 148.057 86.544 147.764 86.544C147.49 86.544 147.25 86.5909 147.043 86.6846C146.84 86.7784 146.68 86.9014 146.562 87.0538C146.449 87.2061 146.393 87.3702 146.393 87.546H145.309C145.309 87.3194 145.367 87.0948 145.484 86.8721C145.602 86.6495 145.77 86.4483 145.988 86.2686C146.211 86.085 146.477 85.9405 146.785 85.835C147.098 85.7256 147.445 85.671 147.828 85.671C148.289 85.671 148.695 85.7491 149.047 85.9053C149.402 86.0616 149.68 86.2979 149.879 86.6143C150.082 86.9268 150.184 87.3194 150.184 87.7921V90.7452C150.184 90.9561 150.201 91.1807 150.236 91.419C150.275 91.6573 150.332 91.8624 150.406 92.0342V92.128H149.275C149.221 92.003 149.178 91.837 149.146 91.6299C149.115 91.419 149.1 91.2237 149.1 91.044ZM149.287 88.2842L149.299 89.046H148.203C147.895 89.046 147.619 89.0714 147.377 89.1221C147.135 89.169 146.932 89.2413 146.768 89.3389C146.604 89.4366 146.479 89.5596 146.393 89.7081C146.307 89.8526 146.264 90.0225 146.264 90.2178C146.264 90.4171 146.309 90.5987 146.398 90.7628C146.488 90.9268 146.623 91.0577 146.803 91.1553C146.986 91.2491 147.211 91.296 147.477 91.296C147.809 91.296 148.102 91.2256 148.355 91.085C148.609 90.9444 148.811 90.7725 148.959 90.5694C149.111 90.3663 149.193 90.169 149.205 89.9776L149.668 90.4991C149.641 90.6631 149.566 90.8448 149.445 91.044C149.324 91.2432 149.162 91.4346 148.959 91.6182C148.76 91.7979 148.521 91.9483 148.244 92.0694C147.971 92.1866 147.662 92.2452 147.318 92.2452C146.889 92.2452 146.512 92.1612 146.188 91.9932C145.867 91.8253 145.617 91.6006 145.438 91.3194C145.262 91.0342 145.174 90.7159 145.174 90.3643C145.174 90.0245 145.24 89.7256 145.373 89.4678C145.506 89.2061 145.697 88.9893 145.947 88.8174C146.197 88.6417 146.498 88.5089 146.85 88.419C147.201 88.3292 147.594 88.2842 148.027 88.2842H149.287ZM153.066 83.128V92.128H151.977V83.128H153.066Z" fill="#737373"/>
<path d="M162.91 83.544H163.086V84.6983H162.986C162.482 84.6983 162.047 84.7764 161.68 84.9327C161.316 85.0889 161.018 85.3038 160.783 85.5772C160.549 85.8506 160.373 86.171 160.256 86.5381C160.143 86.9014 160.086 87.2881 160.086 87.6983V89.0401C160.086 89.3799 160.123 89.6807 160.197 89.9424C160.271 90.2003 160.375 90.4171 160.508 90.5928C160.645 90.7647 160.801 90.8956 160.977 90.9854C161.152 91.0753 161.342 91.1202 161.545 91.1202C161.756 91.1202 161.947 91.0772 162.119 90.9913C162.291 90.9014 162.438 90.7784 162.559 90.6221C162.68 90.4659 162.771 90.2803 162.834 90.0655C162.896 89.8506 162.928 89.6163 162.928 89.3624C162.928 89.1202 162.896 88.8936 162.834 88.6827C162.775 88.4678 162.688 88.2803 162.57 88.1202C162.453 87.9561 162.307 87.8292 162.131 87.7393C161.959 87.6456 161.76 87.5987 161.533 87.5987C161.252 87.5987 160.996 87.6651 160.766 87.7979C160.539 87.9307 160.355 88.1046 160.215 88.3194C160.078 88.5303 160.004 88.7549 159.992 88.9932L159.453 88.8174C159.484 88.4542 159.564 88.128 159.693 87.8389C159.826 87.5499 160 87.3038 160.215 87.1006C160.43 86.8975 160.678 86.7432 160.959 86.6378C161.244 86.5284 161.557 86.4737 161.896 86.4737C162.311 86.4737 162.67 86.5518 162.975 86.7081C163.279 86.8643 163.531 87.0772 163.73 87.3467C163.934 87.6124 164.084 87.9171 164.182 88.2608C164.283 88.6006 164.334 88.9561 164.334 89.3272C164.334 89.7374 164.271 90.1202 164.146 90.4756C164.021 90.8272 163.838 91.1358 163.596 91.4014C163.357 91.6671 163.066 91.8741 162.723 92.0225C162.383 92.171 161.996 92.2452 161.562 92.2452C161.105 92.2452 160.697 92.1573 160.338 91.9815C159.982 91.8057 159.68 91.5635 159.43 91.2549C159.184 90.9464 158.996 90.5909 158.867 90.1885C158.738 89.7862 158.674 89.3604 158.674 88.9112V88.3253C158.674 87.6768 158.756 87.0655 158.92 86.4913C159.084 85.9131 159.336 85.4034 159.676 84.962C160.02 84.5206 160.459 84.1749 160.994 83.9249C161.529 83.671 162.168 83.544 162.91 83.544ZM171.025 87.1475V88.5421C171.025 89.21 170.959 89.7803 170.826 90.253C170.697 90.7217 170.51 91.1026 170.264 91.3956C170.018 91.6885 169.723 91.9034 169.379 92.0401C169.039 92.1768 168.658 92.2452 168.236 92.2452C167.9 92.2452 167.588 92.2022 167.299 92.1163C167.014 92.0303 166.756 91.8956 166.525 91.712C166.295 91.5284 166.098 91.2921 165.934 91.003C165.773 90.71 165.648 90.3604 165.559 89.9542C165.473 89.5479 165.43 89.0772 165.43 88.5421V87.1475C165.43 86.4756 165.496 85.9092 165.629 85.4483C165.762 84.9835 165.951 84.6065 166.197 84.3174C166.443 84.0245 166.736 83.8116 167.076 83.6788C167.42 83.546 167.803 83.4796 168.225 83.4796C168.564 83.4796 168.877 83.5225 169.162 83.6085C169.451 83.6905 169.709 83.8214 169.936 84.001C170.166 84.1807 170.361 84.4151 170.521 84.7042C170.686 84.9893 170.811 85.335 170.896 85.7413C170.982 86.1436 171.025 86.6124 171.025 87.1475ZM169.613 88.7413V86.9366C169.613 86.5967 169.594 86.2979 169.555 86.0401C169.516 85.7784 169.457 85.5577 169.379 85.378C169.305 85.1944 169.211 85.046 169.098 84.9327C168.984 84.8155 168.855 84.7315 168.711 84.6807C168.566 84.626 168.404 84.5987 168.225 84.5987C168.006 84.5987 167.811 84.6417 167.639 84.7276C167.467 84.8096 167.322 84.9424 167.205 85.126C167.088 85.3096 166.998 85.5518 166.936 85.8526C166.877 86.1495 166.848 86.5108 166.848 86.9366V88.7413C166.848 89.085 166.867 89.3878 166.906 89.6495C166.945 89.9112 167.004 90.1358 167.082 90.3233C167.16 90.5069 167.254 90.6592 167.363 90.7803C167.477 90.8975 167.605 90.9835 167.75 91.0381C167.898 91.0928 168.061 91.1202 168.236 91.1202C168.459 91.1202 168.656 91.0772 168.828 90.9913C169 90.9053 169.145 90.7686 169.262 90.5811C169.379 90.3897 169.467 90.1417 169.525 89.837C169.584 89.5323 169.613 89.1671 169.613 88.7413ZM172.227 85.6885V85.2374C172.227 84.9131 172.297 84.6182 172.438 84.3526C172.578 84.087 172.783 83.8741 173.053 83.7139C173.322 83.5538 173.646 83.4737 174.025 83.4737C174.416 83.4737 174.744 83.5538 175.01 83.7139C175.279 83.8741 175.484 84.087 175.625 84.3526C175.766 84.6182 175.836 84.9131 175.836 85.2374V85.6885C175.836 86.0049 175.766 86.296 175.625 86.5616C175.488 86.8272 175.285 87.0401 175.016 87.2003C174.75 87.3604 174.424 87.4405 174.037 87.4405C173.654 87.4405 173.326 87.3604 173.053 87.2003C172.783 87.0401 172.578 86.8272 172.438 86.5616C172.297 86.296 172.227 86.0049 172.227 85.6885ZM173.205 85.2374V85.6885C173.205 85.8448 173.234 85.9932 173.293 86.1339C173.355 86.2745 173.449 86.3878 173.574 86.4737C173.699 86.5596 173.854 86.6026 174.037 86.6026C174.225 86.6026 174.377 86.5596 174.494 86.4737C174.615 86.3878 174.705 86.2745 174.764 86.1339C174.822 85.9932 174.852 85.8448 174.852 85.6885V85.2374C174.852 85.0772 174.82 84.9268 174.758 84.7862C174.699 84.6417 174.609 84.5264 174.488 84.4405C174.367 84.3546 174.213 84.3116 174.025 84.3116C173.846 84.3116 173.693 84.3546 173.568 84.4405C173.447 84.5264 173.355 84.6417 173.293 84.7862C173.234 84.9268 173.205 85.0772 173.205 85.2374ZM176.34 90.4932V90.0362C176.34 89.7159 176.41 89.4229 176.551 89.1573C176.695 88.8917 176.902 88.6788 177.172 88.5186C177.441 88.3585 177.766 88.2784 178.145 88.2784C178.535 88.2784 178.863 88.3585 179.129 88.5186C179.398 88.6788 179.602 88.8917 179.738 89.1573C179.879 89.4229 179.949 89.7159 179.949 90.0362V90.4932C179.949 90.8135 179.879 91.1065 179.738 91.3721C179.602 91.6378 179.4 91.8506 179.135 92.0108C178.869 92.171 178.545 92.251 178.162 92.251C177.775 92.251 177.445 92.171 177.172 92.0108C176.902 91.8506 176.695 91.6378 176.551 91.3721C176.41 91.1065 176.34 90.8135 176.34 90.4932ZM177.324 90.0362V90.4932C177.324 90.6495 177.355 90.7979 177.418 90.9385C177.484 91.0792 177.58 91.1944 177.705 91.2842C177.83 91.3702 177.98 91.4131 178.156 91.4131C178.355 91.4131 178.516 91.3702 178.637 91.2842C178.758 91.1944 178.844 91.0811 178.895 90.9444C178.949 90.8038 178.977 90.6534 178.977 90.4932V90.0362C178.977 89.876 178.945 89.7256 178.883 89.585C178.824 89.4444 178.732 89.3311 178.607 89.2452C178.486 89.1592 178.332 89.1163 178.145 89.1163C177.961 89.1163 177.809 89.1592 177.688 89.2452C177.566 89.3311 177.475 89.4444 177.412 89.585C177.354 89.7256 177.324 89.876 177.324 90.0362ZM178.496 84.8155L174.33 91.4835L173.609 91.0674L177.775 84.3995L178.496 84.8155Z" fill="#0A0A0A"/>
<path d="M113.141 67.5585H114.266C114.207 68.0976 114.053 68.58 113.803 69.0058C113.553 69.4316 113.199 69.7695 112.742 70.0195C112.285 70.2656 111.715 70.3886 111.031 70.3886C110.531 70.3886 110.076 70.2949 109.666 70.1074C109.26 69.9199 108.91 69.6542 108.617 69.3105C108.324 68.9628 108.098 68.5468 107.938 68.0624C107.781 67.5742 107.703 67.0312 107.703 66.4335V65.5839C107.703 64.9863 107.781 64.4453 107.938 63.9609C108.098 63.4726 108.326 63.0546 108.623 62.707C108.924 62.3593 109.285 62.0917 109.707 61.9042C110.129 61.7167 110.604 61.623 111.131 61.623C111.775 61.623 112.32 61.7441 112.766 61.9863C113.211 62.2285 113.557 62.5644 113.803 62.9941C114.053 63.4199 114.207 63.914 114.266 64.4765H113.141C113.086 64.0781 112.984 63.7363 112.836 63.4511C112.688 63.162 112.477 62.9394 112.203 62.7831C111.93 62.6269 111.572 62.5488 111.131 62.5488C110.752 62.5488 110.418 62.621 110.129 62.7656C109.844 62.9101 109.604 63.1152 109.408 63.3808C109.217 63.6464 109.072 63.9648 108.975 64.3359C108.877 64.707 108.828 65.1191 108.828 65.5722V66.4335C108.828 66.8515 108.871 67.2441 108.957 67.6113C109.047 67.9785 109.182 68.3007 109.361 68.5781C109.541 68.8554 109.77 69.0742 110.047 69.2343C110.324 69.3906 110.652 69.4687 111.031 69.4687C111.512 69.4687 111.895 69.3925 112.18 69.2402C112.465 69.0878 112.68 68.8691 112.824 68.5839C112.973 68.2988 113.078 67.957 113.141 67.5585ZM116.82 61.2714V70.2714H115.73V61.2714H116.82ZM121.191 70.3886C120.75 70.3886 120.35 70.3144 119.99 70.166C119.635 70.0136 119.328 69.8007 119.07 69.5273C118.816 69.2538 118.621 68.9296 118.484 68.5546C118.348 68.1796 118.279 67.7695 118.279 67.3242V67.0781C118.279 66.5624 118.355 66.1035 118.508 65.7011C118.66 65.2949 118.867 64.9511 119.129 64.6699C119.391 64.3886 119.688 64.1757 120.02 64.0312C120.352 63.8867 120.695 63.8144 121.051 63.8144C121.504 63.8144 121.895 63.8925 122.223 64.0488C122.555 64.205 122.826 64.4238 123.037 64.705C123.248 64.9824 123.404 65.3105 123.506 65.6894C123.607 66.0644 123.658 66.4745 123.658 66.9199V67.4062H118.924V66.5214H122.574V66.4394C122.559 66.1581 122.5 65.8847 122.398 65.6191C122.301 65.3535 122.145 65.1347 121.93 64.9628C121.715 64.791 121.422 64.705 121.051 64.705C120.805 64.705 120.578 64.7578 120.371 64.8632C120.164 64.9648 119.986 65.1171 119.838 65.3203C119.689 65.5234 119.574 65.7714 119.492 66.0644C119.41 66.3574 119.369 66.6953 119.369 67.0781V67.3242C119.369 67.6249 119.41 67.9081 119.492 68.1738C119.578 68.4355 119.701 68.666 119.861 68.8652C120.025 69.0644 120.223 69.2206 120.453 69.3339C120.688 69.4472 120.953 69.5038 121.25 69.5038C121.633 69.5038 121.957 69.4257 122.223 69.2695C122.488 69.1132 122.721 68.9042 122.92 68.6425L123.576 69.164C123.439 69.371 123.266 69.5683 123.055 69.7558C122.844 69.9433 122.584 70.0956 122.275 70.2128C121.971 70.33 121.609 70.3886 121.191 70.3886ZM128.662 69.1874V65.9238C128.662 65.6738 128.611 65.457 128.51 65.2734C128.412 65.0859 128.264 64.9413 128.064 64.8398C127.865 64.7382 127.619 64.6874 127.326 64.6874C127.053 64.6874 126.812 64.7343 126.605 64.8281C126.402 64.9218 126.242 65.0449 126.125 65.1972C126.012 65.3495 125.955 65.5136 125.955 65.6894H124.871C124.871 65.4628 124.93 65.2382 125.047 65.0156C125.164 64.7929 125.332 64.5917 125.551 64.412C125.773 64.2285 126.039 64.0839 126.348 63.9785C126.66 63.8691 127.008 63.8144 127.391 63.8144C127.852 63.8144 128.258 63.8925 128.609 64.0488C128.965 64.205 129.242 64.4413 129.441 64.7578C129.645 65.0703 129.746 65.4628 129.746 65.9355V68.8886C129.746 69.0995 129.764 69.3242 129.799 69.5624C129.838 69.8007 129.895 70.0058 129.969 70.1777V70.2714H128.838C128.783 70.1464 128.74 69.9804 128.709 69.7734C128.678 69.5624 128.662 69.3671 128.662 69.1874ZM128.85 66.4277L128.861 67.1894H127.766C127.457 67.1894 127.182 67.2148 126.939 67.2656C126.697 67.3124 126.494 67.3847 126.33 67.4824C126.166 67.58 126.041 67.7031 125.955 67.8515C125.869 67.996 125.826 68.166 125.826 68.3613C125.826 68.5605 125.871 68.7421 125.961 68.9062C126.051 69.0703 126.186 69.2011 126.365 69.2988C126.549 69.3925 126.773 69.4394 127.039 69.4394C127.371 69.4394 127.664 69.3691 127.918 69.2285C128.172 69.0878 128.373 68.916 128.521 68.7128C128.674 68.5097 128.756 68.3124 128.768 68.121L129.23 68.6425C129.203 68.8066 129.129 68.9882 129.008 69.1874C128.887 69.3867 128.725 69.5781 128.521 69.7617C128.322 69.9413 128.084 70.0917 127.807 70.2128C127.533 70.33 127.225 70.3886 126.881 70.3886C126.451 70.3886 126.074 70.3046 125.75 70.1367C125.43 69.9687 125.18 69.7441 125 69.4628C124.824 69.1777 124.736 68.8593 124.736 68.5078C124.736 68.1679 124.803 67.8691 124.936 67.6113C125.068 67.3495 125.26 67.1328 125.51 66.9609C125.76 66.7851 126.061 66.6523 126.412 66.5624C126.764 66.4726 127.156 66.4277 127.59 66.4277H128.85ZM132.535 65.2851V70.2714H131.451V63.9316H132.477L132.535 65.2851ZM132.277 66.8613L131.826 66.8437C131.83 66.4101 131.895 66.0097 132.02 65.6425C132.145 65.2714 132.32 64.9492 132.547 64.6757C132.773 64.4023 133.043 64.1913 133.355 64.0429C133.672 63.8906 134.021 63.8144 134.404 63.8144C134.717 63.8144 134.998 63.8574 135.248 63.9433C135.498 64.0253 135.711 64.1581 135.887 64.3417C136.066 64.5253 136.203 64.7636 136.297 65.0566C136.391 65.3456 136.438 65.6992 136.438 66.1171V70.2714H135.348V66.1054C135.348 65.7734 135.299 65.5078 135.201 65.3085C135.104 65.1054 134.961 64.9589 134.773 64.8691C134.586 64.7753 134.355 64.7285 134.082 64.7285C133.812 64.7285 133.566 64.7851 133.344 64.8984C133.125 65.0117 132.936 65.1679 132.775 65.3671C132.619 65.5663 132.496 65.7949 132.406 66.0527C132.32 66.3066 132.277 66.5761 132.277 66.8613ZM139.262 63.9316V70.2714H138.172V63.9316H139.262ZM138.09 62.2499C138.09 62.0742 138.143 61.9257 138.248 61.8046C138.357 61.6835 138.518 61.623 138.729 61.623C138.936 61.623 139.094 61.6835 139.203 61.8046C139.316 61.9257 139.373 62.0742 139.373 62.2499C139.373 62.4179 139.316 62.5624 139.203 62.6835C139.094 62.8007 138.936 62.8593 138.729 62.8593C138.518 62.8593 138.357 62.8007 138.248 62.6835C138.143 62.5624 138.09 62.4179 138.09 62.2499ZM142.086 65.2851V70.2714H141.002V63.9316H142.027L142.086 65.2851ZM141.828 66.8613L141.377 66.8437C141.381 66.4101 141.445 66.0097 141.57 65.6425C141.695 65.2714 141.871 64.9492 142.098 64.6757C142.324 64.4023 142.594 64.1913 142.906 64.0429C143.223 63.8906 143.572 63.8144 143.955 63.8144C144.268 63.8144 144.549 63.8574 144.799 63.9433C145.049 64.0253 145.262 64.1581 145.438 64.3417C145.617 64.5253 145.754 64.7636 145.848 65.0566C145.941 65.3456 145.988 65.6992 145.988 66.1171V70.2714H144.898V66.1054C144.898 65.7734 144.85 65.5078 144.752 65.3085C144.654 65.1054 144.512 64.9589 144.324 64.8691C144.137 64.7753 143.906 64.7285 143.633 64.7285C143.363 64.7285 143.117 64.7851 142.895 64.8984C142.676 65.0117 142.486 65.1679 142.326 65.3671C142.17 65.5663 142.047 65.7949 141.957 66.0527C141.871 66.3066 141.828 66.5761 141.828 66.8613ZM151.742 63.9316H152.727V70.1367C152.727 70.6953 152.613 71.1718 152.387 71.5663C152.16 71.9609 151.844 72.2597 151.438 72.4628C151.035 72.6699 150.57 72.7734 150.043 72.7734C149.824 72.7734 149.566 72.7382 149.27 72.6679C148.977 72.6015 148.688 72.4863 148.402 72.3222C148.121 72.162 147.885 71.9453 147.693 71.6718L148.262 71.0273C148.527 71.3476 148.805 71.5703 149.094 71.6953C149.387 71.8203 149.676 71.8828 149.961 71.8828C150.305 71.8828 150.602 71.8183 150.852 71.6894C151.102 71.5605 151.295 71.3691 151.432 71.1152C151.572 70.8652 151.643 70.5566 151.643 70.1894V65.3261L151.742 63.9316ZM147.377 67.1718V67.0488C147.377 66.5644 147.434 66.1249 147.547 65.7304C147.664 65.332 147.83 64.9902 148.045 64.705C148.264 64.4199 148.527 64.2011 148.836 64.0488C149.145 63.8925 149.492 63.8144 149.879 63.8144C150.277 63.8144 150.625 63.8847 150.922 64.0253C151.223 64.162 151.477 64.3632 151.684 64.6288C151.895 64.8906 152.061 65.207 152.182 65.5781C152.303 65.9492 152.387 66.3691 152.434 66.8378V67.3769C152.391 67.8417 152.307 68.2597 152.182 68.6308C152.061 69.0019 151.895 69.3183 151.684 69.58C151.477 69.8417 151.223 70.0429 150.922 70.1835C150.621 70.3203 150.27 70.3886 149.867 70.3886C149.488 70.3886 149.145 70.3085 148.836 70.1484C148.531 69.9882 148.27 69.7636 148.051 69.4745C147.832 69.1855 147.664 68.8456 147.547 68.455C147.434 68.0605 147.377 67.6328 147.377 67.1718ZM148.461 67.0488V67.1718C148.461 67.4882 148.492 67.7851 148.555 68.0624C148.621 68.3398 148.721 68.5839 148.854 68.7949C148.99 69.0058 149.164 69.1718 149.375 69.2929C149.586 69.4101 149.838 69.4687 150.131 69.4687C150.49 69.4687 150.787 69.3925 151.021 69.2402C151.256 69.0878 151.441 68.8867 151.578 68.6367C151.719 68.3867 151.828 68.1152 151.906 67.8222V66.4101C151.863 66.1953 151.797 65.9882 151.707 65.789C151.621 65.5859 151.508 65.4062 151.367 65.2499C151.23 65.0898 151.061 64.9628 150.857 64.8691C150.654 64.7753 150.416 64.7285 150.143 64.7285C149.846 64.7285 149.59 64.791 149.375 64.916C149.164 65.037 148.99 65.205 148.854 65.4199C148.721 65.6308 148.621 65.8769 148.555 66.1581C148.492 66.4355 148.461 66.7324 148.461 67.0488Z" fill="#737373"/>
<path d="M164.363 69.1464V70.2714H158.645V69.3046L161.422 66.2753C161.727 65.9316 161.967 65.6347 162.143 65.3847C162.318 65.1347 162.441 64.9101 162.512 64.7109C162.586 64.5078 162.623 64.3105 162.623 64.1191C162.623 63.8495 162.572 63.6132 162.471 63.4101C162.373 63.2031 162.229 63.041 162.037 62.9238C161.846 62.8027 161.613 62.7421 161.34 62.7421C161.023 62.7421 160.758 62.8105 160.543 62.9472C160.328 63.0839 160.166 63.2734 160.057 63.5156C159.947 63.7538 159.893 64.0273 159.893 64.3359H158.48C158.48 63.8398 158.594 63.3867 158.82 62.9765C159.047 62.5624 159.375 62.2343 159.805 61.9921C160.234 61.746 160.752 61.623 161.357 61.623C161.928 61.623 162.412 61.7187 162.811 61.9101C163.209 62.1015 163.512 62.373 163.719 62.7245C163.93 63.0761 164.035 63.4921 164.035 63.9726C164.035 64.2382 163.992 64.5019 163.906 64.7636C163.82 65.0253 163.697 65.287 163.537 65.5488C163.381 65.8066 163.195 66.0663 162.98 66.3281C162.766 66.5859 162.529 66.8476 162.271 67.1132L160.426 69.1464H164.363ZM171.131 61.7402V62.5136L167.721 70.2714H166.232L169.637 62.8652H165.219V61.7402H171.131ZM172.227 63.832V63.3808C172.227 63.0566 172.297 62.7617 172.438 62.496C172.578 62.2304 172.783 62.0175 173.053 61.8574C173.322 61.6972 173.646 61.6171 174.025 61.6171C174.416 61.6171 174.744 61.6972 175.01 61.8574C175.279 62.0175 175.484 62.2304 175.625 62.496C175.766 62.7617 175.836 63.0566 175.836 63.3808V63.832C175.836 64.1484 175.766 64.4394 175.625 64.705C175.488 64.9706 175.285 65.1835 175.016 65.3437C174.75 65.5038 174.424 65.5839 174.037 65.5839C173.654 65.5839 173.326 65.5038 173.053 65.3437C172.783 65.1835 172.578 64.9706 172.438 64.705C172.297 64.4394 172.227 64.1484 172.227 63.832ZM173.205 63.3808V63.832C173.205 63.9882 173.234 64.1367 173.293 64.2773C173.355 64.4179 173.449 64.5312 173.574 64.6171C173.699 64.7031 173.854 64.746 174.037 64.746C174.225 64.746 174.377 64.7031 174.494 64.6171C174.615 64.5312 174.705 64.4179 174.764 64.2773C174.822 64.1367 174.852 63.9882 174.852 63.832V63.3808C174.852 63.2206 174.82 63.0703 174.758 62.9296C174.699 62.7851 174.609 62.6699 174.488 62.5839C174.367 62.498 174.213 62.455 174.025 62.455C173.846 62.455 173.693 62.498 173.568 62.5839C173.447 62.6699 173.355 62.7851 173.293 62.9296C173.234 63.0703 173.205 63.2206 173.205 63.3808ZM176.34 68.6367V68.1796C176.34 67.8593 176.41 67.5663 176.551 67.3007C176.695 67.0351 176.902 66.8222 177.172 66.662C177.441 66.5019 177.766 66.4218 178.145 66.4218C178.535 66.4218 178.863 66.5019 179.129 66.662C179.398 66.8222 179.602 67.0351 179.738 67.3007C179.879 67.5663 179.949 67.8593 179.949 68.1796V68.6367C179.949 68.957 179.879 69.2499 179.738 69.5156C179.602 69.7812 179.4 69.9941 179.135 70.1542C178.869 70.3144 178.545 70.3945 178.162 70.3945C177.775 70.3945 177.445 70.3144 177.172 70.1542C176.902 69.9941 176.695 69.7812 176.551 69.5156C176.41 69.2499 176.34 68.957 176.34 68.6367ZM177.324 68.1796V68.6367C177.324 68.7929 177.355 68.9413 177.418 69.082C177.484 69.2226 177.58 69.3378 177.705 69.4277C177.83 69.5136 177.98 69.5566 178.156 69.5566C178.355 69.5566 178.516 69.5136 178.637 69.4277C178.758 69.3378 178.844 69.2245 178.895 69.0878C178.949 68.9472 178.977 68.7968 178.977 68.6367V68.1796C178.977 68.0195 178.945 67.8691 178.883 67.7285C178.824 67.5878 178.732 67.4745 178.607 67.3886C178.486 67.3027 178.332 67.2597 178.145 67.2597C177.961 67.2597 177.809 67.3027 177.688 67.3886C177.566 67.4745 177.475 67.5878 177.412 67.7285C177.354 67.8691 177.324 68.0195 177.324 68.1796ZM178.496 62.9589L174.33 69.6269L173.609 69.2109L177.775 62.5429L178.496 62.9589Z" fill="#0A0A0A"/>
</svg>
