<svg width="24" height="25" viewBox="0 0 24 25" fill="none" xmlns="http://www.w3.org/2000/svg">
<rect y="0.5" width="24" height="24" rx="8" fill="#E8EBF0"/>
<path d="M13.6668 4.38422V7.82634C13.6668 8.29305 13.6668 8.5264 13.7577 8.70466C13.8376 8.86146 13.965 8.98895 14.1218 9.06884C14.3001 9.15967 14.5335 9.15967 15.0002 9.15967H18.4423M18.6668 10.8165V16.8263C18.6668 18.2265 18.6668 18.9265 18.3943 19.4613C18.1547 19.9317 17.7722 20.3142 17.3018 20.5539C16.767 20.8263 16.067 20.8263 14.6668 20.8263H9.3335C7.93336 20.8263 7.2333 20.8263 6.69852 20.5539C6.22811 20.3142 5.84566 19.9317 5.60598 19.4613C5.3335 18.9265 5.3335 18.2265 5.3335 16.8263V8.15967C5.3335 6.75954 5.3335 6.05947 5.60598 5.52469C5.84566 5.05429 6.22811 4.67184 6.69852 4.43215C7.2333 4.15967 7.93336 4.15967 9.3335 4.15967H12.01C12.6215 4.15967 12.9272 4.15967 13.2149 4.22874C13.47 4.28999 13.7139 4.391 13.9375 4.52807C14.1898 4.68267 14.406 4.89886 14.8384 5.33124L17.4953 7.98809C17.9276 8.42047 18.1438 8.63666 18.2984 8.88896C18.4355 9.11264 18.5365 9.3565 18.5978 9.61159C18.6668 9.89931 18.6668 10.205 18.6668 10.8165Z" stroke="#143965" stroke-width="1.66667" stroke-linecap="round" stroke-linejoin="round"/>
</svg>
