<svg width="15" height="24" viewBox="0 0 15 24" fill="none" xmlns="http://www.w3.org/2000/svg">
<path d="M6.67313 23.3871V0.827079H8.64113V23.3871H6.67313ZM7.41713 20.7471C6.10513 20.7471 4.84913 20.5631 3.64913 20.1951C2.44913 19.8111 1.49713 19.3231 0.793125 18.7311L1.87313 16.3071C2.54513 16.8351 3.37713 17.2751 4.36913 17.6271C5.36113 17.9791 6.37713 18.1551 7.41713 18.1551C8.29713 18.1551 9.00913 18.0591 9.55313 17.8671C10.0971 17.6751 10.4971 17.4191 10.7531 17.0991C11.0091 16.7631 11.1371 16.3871 11.1371 15.9711C11.1371 15.4591 10.9531 15.0511 10.5851 14.7471C10.2171 14.4271 9.73713 14.1791 9.14513 14.0031C8.56913 13.8111 7.92113 13.6351 7.20113 13.4751C6.49713 13.3151 5.78513 13.1311 5.06513 12.9231C4.36113 12.6991 3.71313 12.4191 3.12112 12.0831C2.54513 11.7311 2.07313 11.2671 1.70513 10.6911C1.33713 10.1151 1.15313 9.37908 1.15313 8.48308C1.15313 7.57108 1.39313 6.73908 1.87313 5.98708C2.36913 5.21908 3.11313 4.61108 4.10513 4.16308C5.11313 3.69908 6.38513 3.46708 7.92113 3.46708C8.92913 3.46708 9.92913 3.59508 10.9211 3.85108C11.9131 4.10708 12.7771 4.47508 13.5131 4.95508L12.5291 7.37908C11.7771 6.93108 11.0011 6.60308 10.2011 6.39508C9.40113 6.17108 8.63313 6.05908 7.89713 6.05908C7.03313 6.05908 6.32913 6.16308 5.78513 6.37108C5.25713 6.57908 4.86513 6.85108 4.60913 7.18708C4.36913 7.52308 4.24913 7.90708 4.24913 8.33908C4.24913 8.85108 4.42513 9.26708 4.77713 9.58708C5.14513 9.89108 5.61713 10.1311 6.19313 10.3071C6.78513 10.4831 7.44113 10.6591 8.16113 10.8351C8.88113 10.9951 9.59313 11.1791 10.2971 11.3871C11.0171 11.5951 11.6651 11.8671 12.2411 12.2031C12.8331 12.5391 13.3051 12.9951 13.6571 13.5711C14.0251 14.1471 14.2091 14.8751 14.2091 15.7551C14.2091 16.6511 13.9611 17.4831 13.4651 18.2511C12.9851 19.0031 12.2411 19.6111 11.2331 20.0751C10.2251 20.5231 8.95313 20.7471 7.41713 20.7471Z" fill="#667085"/>
</svg>
