<svg width="36" height="22" viewBox="0 0 36 22" fill="none" xmlns="http://www.w3.org/2000/svg">
<path d="M35.9156 11.0258C31.6688 6.13208 25.8 0.50708 18 0.50708C14.85 0.50708 11.9625 1.39771 8.91563 3.30083C6.34688 4.91333 3.7125 7.18208 0.09375 10.9133L0 11.0071L0.628125 11.654C5.79375 16.9415 10.2563 21.5071 18 21.5071C21.4219 21.5071 24.7406 20.3915 28.1438 18.0946C31.0406 16.1352 33.5062 13.6508 35.4844 11.6446L36 11.129L35.9156 11.0258ZM18 18.5071C13.8656 18.5071 10.5 15.1415 10.5 11.0071C10.5 6.87271 13.8656 3.50708 18 3.50708C22.1344 3.50708 25.5 6.87271 25.5 11.0071C25.5 15.1415 22.1344 18.5071 18 18.5071Z" fill="#143965"/>
<path d="M17.475 8.26958C17.475 7.62271 17.6625 7.01333 17.9906 6.50708C15.5062 6.50708 13.5 8.53208 13.5 11.0258C13.5 13.5196 15.5156 15.5352 17.9906 15.5352C20.4656 15.5352 22.4906 13.5196 22.4906 11.0258C21.9844 11.354 21.375 11.5415 20.7281 11.5415C18.9375 11.5321 17.475 10.0696 17.475 8.26958Z" fill="#143965"/>
</svg>
