<svg width="24" height="24" viewBox="0 0 24 24" fill="none" xmlns="http://www.w3.org/2000/svg">
<rect y="0.00708008" width="24" height="24" rx="8" fill="#E8EBF0"/>
<path d="M13.6668 3.8913V7.33342C13.6668 7.80013 13.6668 8.03348 13.7577 8.21174C13.8376 8.36854 13.965 8.49603 14.1218 8.57592C14.3001 8.66675 14.5335 8.66675 15.0002 8.66675H18.4423M18.6668 10.3236V16.3334C18.6668 17.7335 18.6668 18.4336 18.3943 18.9684C18.1547 19.4388 17.7722 19.8212 17.3018 20.0609C16.767 20.3334 16.067 20.3334 14.6668 20.3334H9.3335C7.93336 20.3334 7.2333 20.3334 6.69852 20.0609C6.22811 19.8212 5.84566 19.4388 5.60598 18.9684C5.3335 18.4336 5.3335 17.7335 5.3335 16.3334V7.66675C5.3335 6.26662 5.3335 5.56655 5.60598 5.03177C5.84566 4.56137 6.22811 4.17892 6.69852 3.93923C7.2333 3.66675 7.93336 3.66675 9.3335 3.66675H12.01C12.6215 3.66675 12.9272 3.66675 13.2149 3.73582C13.47 3.79707 13.7139 3.89808 13.9375 4.03515C14.1898 4.18975 14.406 4.40594 14.8384 4.83832L17.4953 7.49517C17.9276 7.92755 18.1438 8.14374 18.2984 8.39604C18.4355 8.61972 18.5365 8.86358 18.5978 9.11867C18.6668 9.40639 18.6668 9.71213 18.6668 10.3236Z" stroke="#143965" stroke-width="1.66667" stroke-linecap="round" stroke-linejoin="round"/>
</svg>
