<svg width="18" height="19" viewBox="0 0 18 19" fill="none" xmlns="http://www.w3.org/2000/svg">
<path d="M1.5 4.4974H3.16667M3.16667 4.4974H16.5M3.16667 4.4974V16.1641C3.16667 16.6061 3.34226 17.03 3.65482 17.3426C3.96738 17.6551 4.39131 17.8307 4.83333 17.8307H13.1667C13.6087 17.8307 14.0326 17.6551 14.3452 17.3426C14.6577 17.03 14.8333 16.6061 14.8333 16.1641V4.4974H3.16667ZM5.66667 4.4974V2.83073C5.66667 2.3887 5.84226 1.96478 6.15482 1.65222C6.46738 1.33966 6.89131 1.16406 7.33333 1.16406H10.6667C11.1087 1.16406 11.5326 1.33966 11.8452 1.65222C12.1577 1.96478 12.3333 2.3887 12.3333 2.83073V4.4974M7.33333 8.66406V13.6641M10.6667 8.66406V13.6641" stroke="#F13D5A" stroke-width="1.66667" stroke-linecap="round" stroke-linejoin="round"/>
</svg>
